# AST/ASF file generated using VICON BodyLanguage
# -----------------------------------------------
:version 1.10
:name VICON
:units
  mass 1.0
  length 0.45
  angle deg
:documentation
   .ast/.asf automatically generated from VICON data using
   VICON BodyBuilder and BodyLanguage model FoxedUp or BRILLIANT.MOD
:root
   order TX TY TZ RX RY RZ
   axis XYZ
   position 0 0 0  
   orientation 0 0 0 
:bonedata
  begin
     id 1 
     name lhipjoint
     direction 0.643824 -0.71708 0.266994 
     length 2.52133 
     axis 0 0 0  XYZ
  end
  begin
     id 2 
     name lfemur
     direction 0.34202 -0.939693 0  
     length 7.51824  
     axis 0 0 20  XYZ
    dof rx ry rz
    limits (-160.0 20.0)
           (-70.0 70.0)
           (-60.0 70.0)
  end
  begin
     id 3 
     name ltibia
     direction 0.34202 -0.939693 0   
     length 7.3685   
     axis 0 0 20   XYZ
    dof rx
    limits (-10.0 170.0)
  end
  begin
     id 4 
     name lfoot
     direction 0.105419 -0.289636 0.951314   
     length 2.20972   
     axis -90 7.62852e-016 20   XYZ
    dof rx rz
    limits (-45.0 90.0)
           (-70.0 20.0)
  end
  begin
     id 5 
     name ltoes
     direction 1.53549e-011 -4.21833e-011 1   
     length 1.10139   
     axis -90 7.62852e-016 20   XYZ
    dof rx
    limits (-90.0 20.0)
  end
  begin
     id 6 
     name rhipjoint
     direction -0.608823 -0.743445 0.276811   
     length 2.43192  
     axis 0 0 0  XYZ 
  end
  begin
     id 7 
     name rfemur
     direction -0.34202 -0.939693 0   
     length 7.69715   
     axis 0 0 -20   XYZ
    dof rx ry rz
    limits (-160.0 20.0)
           (-70.0 70.0)
           (-70.0 60.0)
  end
  begin
     id 8 
     name rtibia
     direction -0.34202 -0.939693 0   
     length 7.44924   
     axis 0 0 -20   XYZ
    dof rx
    limits (-10.0 170.0)
 end
 begin
     id 9 
     name rfoot
     direction -0.103614 -0.284677 0.953007   
     length 2.22623  
     axis -90 -7.62852e-016 -20   XYZ
    dof rx rz
    limits (-45.0 90.0)
           (-20.0 70.0)
  end
  begin
     id 10 
     name rtoes
     direction -1.53537e-011 -4.22026e-011 1   
     length 1.11   
     axis -90 -7.62852e-016 -20   XYZ
    dof rx
    limits (-90.0 20.0)
  end
  begin
     id 11 
     name lowerback
     direction -0.0101212 0.99662 -0.0815298   
     length 2.08277   
     axis 0 0 0   XYZ
    dof rx ry rz
    limits (-20.0 45.0)
           (-30.0 30.0)
           (-30.0 30.0)
  end
  begin
     id 12 
     name upperback
     direction 0.024314 0.999591 -0.0150645   
     length 2.08524   
     axis 0 0 0   XYZ
    dof rx ry rz
    limits (-20.0 45.0)
           (-30.0 30.0)
           (-30.0 30.0)
  end
  begin
     id 13 
     name thorax
     direction 0.0285959 0.999323 0.0231357   
     length 2.09645   
     axis 0 0 0   XYZ
    dof rx ry rz
    limits (-20.0 45.0)
           (-30.0 30.0)
           (-30.0 30.0)
  end
  begin
     id 14 
     name lowerneck
     direction -0.065512 0.979301 0.191515   
     length 1.63798   
     axis 0 0 0   XYZ
    dof rx ry rz
    limits (-20.0 45.0)
           (-30.0 30.0)
           (-30.0 30.0)
  end
  begin
     id 15 
     name upperneck
     direction 0.0498479 0.98191 -0.182667   
     length 1.68731   
     axis 0 0 0   XYZ
    dof rx ry rz
    limits (-20.0 45.0)
           (-30.0 30.0)
           (-30.0 30.0)
  end
  begin
     id 16
     name head
     direction 0.0230358 0.996257 -0.0833175  
     length 1.69785  
     axis 0 0 0   XYZ
    dof rx ry rz
    limits (-20.0 45.0)
           (-30.0 30.0)
           (-30.0 30.0)
  end
  begin
     id 17 
     name lclavicle
     direction 0.967963 0.201165 -0.150269  
     length 3.63976  
     axis 0 0 0   XYZ
    dof ry rz
    limits (-20.0 10.0)
           (0.0 20.0)
  end
  begin
     id 18 
     name lhumerus
     direction 1 -4.48954e-011 -2.92837e-028   
     length 5.32462   
     axis 180 -30 -90   XYZ
    dof rx ry rz
    limits (-60.0 90.0)
           (-90.0 90.0)
           (-90.0 90.0)
  end
  begin
     id 19
     name lradius
     direction 1 -4.48958e-011 -6.39511e-027   
     length 3.48402   
     axis 180 -30 -90   XYZ
    dof rx
    limits (-10.0 170.0)
  end
  begin
     id 20
     name lwrist
     direction 1 -4.48975e-011 -1.1413e-026   
     length 1.74201   
     axis 6.88575e-015 90 90   XYZ
    dof ry
    limits (-180.0 0.0)
 end
  begin
     id 21 
     name lhand
     direction 1 -4.48899e-011 -2.28192e-026   
     length 0.572476   
     axis 1.45643e-014 90 90   XYZ
    dof rx rz
    limits (-90.0 90.0)
           (-45.0 45.0)
  end
  begin
     id 22 
     name lfingers
     direction 1 -4.49155e-011 -4.5684e-026   
     length 0.461545   
     axis 2.91283e-014 90 90   XYZ
    dof rx
    limits (0.0 90.0)
  end
  begin
     id 23
     name lthumb
     direction 0.707107 -6.34943e-011 0.707107   
     length 0.662688   
     axis -90 45 -2.25915e-014   XYZ
    dof rx rz
    limits (-45.0 45.0)
           (-45.0 45.0)
  end
  begin
     id 24 
     name rclavicle
     direction -0.964103 0.264019 -0.0282629   
     length 3.54491  
     axis 0 0 0   XYZ 
    dof ry rz
    limits (-10.0 20.0)
           (-20.0 0.0)
  end
  begin
     id 25 
     name rhumerus
     direction -1 -4.48964e-011 -2.45032e-027  
     length 5.33589   
     axis 180 30 90   XYZ
    dof rx ry rz
    limits (-90.0 60.0)
           (-90.0 90.0)
           (-90.0 90.0)
  end
  begin
     id 26 
     name rradius
     direction -1 -4.48987e-011 -1.55093e-027   
     length 3.64134   
     axis 180 30 90   XYZ
    dof rx
    limits (-10.0 170.0)
  end
  begin
     id 27 
     name rwrist
     direction -1 -4.4897e-011 -1.14128e-026   
     length 1.82067   
     axis 6.88575e-015 -90 -90   XYZ
    dof ry
    limits (-180.0 0.0)
  end
  begin
     id 28
     name rhand
     direction -1 -4.49021e-011 -2.28301e-026   
     length 0.734811   
     axis 1.45643e-014 -90 -90   XYZ
    dof rx rz
    limits (-90.0 90.0)
           (-45.0 45.0)
  end
  begin
     id 29
     name rfingers
     direction -1 -4.48862e-011 -4.56319e-026   
     length 0.592424   
     axis 2.91283e-014 -90 -90   XYZ
    dof rx
    limits (0.0 90.0)
  end
  begin
     id 30
     name rthumb
     direction -0.707107 -6.34978e-011 0.707107   
     length 0.850605   
     axis -90 -45 2.25915e-014   XYZ
    dof rx rz
    limits (-45.0 45.0)
           (-45.0 45.0)
  end
:hierarchy
  begin
    root lhipjoint rhipjoint lowerback
    lhipjoint lfemur
    lfemur ltibia
    ltibia lfoot
    lfoot ltoes
    rhipjoint rfemur
    rfemur rtibia
    rtibia rfoot
    rfoot rtoes
    lowerback upperback
    upperback thorax
    thorax lowerneck lclavicle rclavicle
    lowerneck upperneck
    upperneck head
    lclavicle lhumerus
    lhumerus lradius
    lradius lwrist
    lwrist lhand lthumb
    lhand lfingers
    rclavicle rhumerus
    rhumerus rradius
    rradius rwrist
    rwrist rhand rthumb
    rhand rfingers
  end

#!OML:ASF F:\VICON\USERDATA\INSTALL\rory3\rory3.ASF
:FULLY-SPECIFIED
:DEGREES
1
root 1.11298 17.9724 0.635418 7.46806 -6.24348 0.250417
lowerback 4.51146 -2.14215 -4.38726
upperback 0.298594 -3.00044 3.85731
thorax -1.78741 -1.45964 6.65586
lowerneck -19.3913 -10.3946 -12.7512
upperneck 18.4434 -12.9334 9.70518
head 10.6076 -5.81204 3.47855
rclavicle 1.09332e-014 3.97569e-015
rhumerus -29.9883 -5.9958 -71.7407
rradius 32.8103
rwrist 18.0339
rhand -20.0208 3.97786
rfingers 7.12502
rthumb 6.31969 -25.9079
lclavicle 1.09332e-014 3.97569e-015
lhumerus -25.3803 -0.869754 85.3857
lradius 31.3672
lwrist -8.22735
lhand -13.0212 23.0448
lfingers 7.12502
lthumb 13.0728 52.6152
rfemur -19.1362 3.66533 12.7268
rtibia 26.2185
rfoot -13.114 -8.38136
rtoes 3.6291
lfemur -6.68866 -3.80306 -14.9078
ltibia 14.5069
lfoot -9.10935 18.7051
ltoes -21.8757
2
root 1.13063 17.9748 0.635189 7.48615 -6.33282 0.301226
lowerback 4.53531 -2.11914 -4.43644
upperback 0.292609 -2.97321 3.83696
thorax -1.80957 -1.44471 6.6627
lowerneck -19.4242 -10.4023 -12.7863
upperneck 18.3978 -12.9436 9.77964
head 10.6069 -5.81016 3.5075
rclavicle 6.71892e-014 7.95139e-016
rhumerus -30.0677 -5.9364 -71.7854
rradius 32.933
rwrist 17.9477
rhand -20.0923 3.98898
rfingers 7.12502
rthumb 6.25067 -25.8988
lclavicle 6.71892e-014 7.95139e-016
lhumerus -25.433 -0.644281 85.3403
lradius 31.2025
lwrist -8.29365
lhand -13.0131 23.2675
lfingers 7.12502
lthumb 13.0806 52.8373
rfemur -19.174 3.71806 12.5935
rtibia 26.1971
rfoot -13.0979 -8.40394
rtoes 3.38869
lfemur -6.68628 -3.84465 -15.038
ltibia 14.4469
lfoot -9.07107 18.8382
ltoes -21.7272
3
root 1.14421 17.9755 0.632311 7.48799 -6.45858 0.398484
lowerback 4.5662 -2.09092 -4.60388
upperback 0.286569 -2.94528 3.82761
thorax -1.82933 -1.42863 6.74941
lowerneck -19.4934 -10.4208 -12.8781
upperneck 18.3875 -12.9514 9.85701
head 10.6297 -5.80906 3.54543
rclavicle 4.03533e-014 8.74653e-015
rhumerus -30.1297 -5.79858 -71.8322
rradius 33.0779
rwrist 17.7247
rhand -19.9505 3.70229
rfingers 7.12502
rthumb 6.38761 -26.1814
lclavicle 4.03533e-014 8.74653e-015
lhumerus -25.5665 -0.40142 85.3156
lradius 30.9736
lwrist -8.94238
lhand -13.53 22.6954
lfingers 7.12502
lthumb 12.5822 52.2965
rfemur -19.2157 3.92146 12.4173
rtibia 26.1708
rfoot -13.0998 -8.51597
rtoes 3.00046
lfemur -6.7118 -3.77656 -15.2026
ltibia 14.4293
lfoot -9.01336 18.9121
ltoes -21.8582
4
root 1.16167 17.9756 0.631115 7.54699 -6.53026 0.473808
lowerback 4.50544 -2.09357 -4.63388
upperback 0.273192 -2.94899 3.79397
thorax -1.80885 -1.43064 6.72842
lowerneck -19.557 -10.4208 -13.0045
upperneck 18.3982 -12.9248 9.93266
head 10.6572 -5.79496 3.59481
rclavicle 1.21259e-014 -2.46493e-014
rhumerus -30.1729 -5.77428 -71.8856
rradius 33.1521
rwrist 17.7511
rhand -19.9157 3.34357
rfingers 7.12502
rthumb 6.42116 -26.5391
lclavicle 1.21259e-014 -2.46493e-014
lhumerus -25.6421 -0.0607999 85.1998
lradius 31.0288
lwrist -8.50799
lhand -13.0693 23.2675
lfingers 7.12502
lthumb 13.0264 52.8407
rfemur -19.2856 4.00125 12.2595
rtibia 26.1104
rfoot -13.0469 -8.58059
rtoes 2.91201
lfemur -6.82179 -3.6495 -15.3504
ltibia 14.468
lfoot -8.91131 18.8475
ltoes -22.2947
5
root 1.18185 17.9763 0.631817 7.56086 -6.52603 0.369074
lowerback 4.5543 -2.13205 -4.45718
upperback 0.238888 -2.99246 3.80107
thorax -1.87397 -1.45065 6.6402
lowerneck -19.5174 -10.3709 -13.0387
upperneck 18.401 -12.8591 9.96877
head 10.6481 -5.76505 3.62686
rclavicle 4.87022e-014 -1.27222e-014
rhumerus -30.3005 -5.67902 -71.9453
rradius 33.2544
rwrist 17.8537
rhand -19.9895 3.27074
rfingers 7.12502
rthumb 6.34994 -26.6141
lclavicle 4.87022e-014 -1.27222e-014
lhumerus -25.6881 0.156677 85.1095
lradius 30.7018
lwrist -8.49461
lhand -13.092 23.3755
lfingers 7.12502
lthumb 13.0046 52.9501
rfemur -19.2431 3.95971 12.3092
rtibia 26.0309
rfoot -12.9627 -8.53697
rtoes 3.10868
lfemur -6.85211 -3.53117 -15.3102
ltibia 14.5584
lfoot -8.92686 18.7001
ltoes -22.4241
6
root 1.2001 17.9759 0.631766 7.5538 -6.60391 0.346714
lowerback 4.62619 -2.14089 -4.38898
upperback 0.204487 -3.00317 3.76985
thorax -1.95357 -1.45299 6.57342
lowerneck -19.424 -10.3241 -12.9903
upperneck 18.3525 -12.8206 9.98829
head 10.6067 -5.74606 3.63676
rclavicle 4.37326e-014 -2.54444e-014
rhumerus -30.4711 -5.59953 -72.0184
rradius 33.4022
rwrist 17.8828
rhand -19.994 3.43385
rfingers 7.12502
rthumb 6.34557 -26.4511
lclavicle 4.37326e-014 -2.54444e-014
lhumerus -25.7315 0.228062 85.0142
lradius 30.4524
lwrist -8.03811
lhand -12.8876 23.4092
lfingers 7.12502
lthumb 13.2016 52.9712
rfemur -19.2114 3.96972 12.2595
rtibia 25.9396
rfoot -12.884 -8.50099
rtoes 2.92536
lfemur -6.88115 -3.37795 -15.3611
ltibia 14.6831
lfoot -9.05527 18.6035
ltoes -22.3072
7
root 1.21658 17.9755 0.627895 7.5447 -6.72964 0.336477
lowerback 4.6939 -2.11542 -4.35905
upperback 0.216417 -2.96996 3.74691
thorax -1.98672 -1.43577 6.53348
lowerneck -19.3647 -10.3196 -12.8884
upperneck 18.181 -12.8189 9.92304
head 10.5208 -5.74902 3.59939
rclavicle 5.45664e-014 -1.66979e-014
rhumerus -30.5044 -5.64927 -72.0603
rradius 33.4681
rwrist 17.7746
rhand -20.0073 3.50491
rfingers 7.12502
rthumb 6.33277 -26.3804
lclavicle 5.45664e-014 -1.66979e-014
lhumerus -25.7079 0.35788 84.9341
lradius 30.3173
lwrist -7.75937
lhand -12.4382 23.8467
lfingers 7.12502
lthumb 13.6347 53.3802
rfemur -19.2181 4.15112 12.1881
rtibia 25.8504
rfoot -12.8477 -8.59218
rtoes 2.64939
lfemur -6.94279 -3.1333 -15.4123
ltibia 14.8061
lfoot -9.21583 18.4623
ltoes -22.1985
8
root 1.23304 17.9762 0.62456 7.57149 -6.85361 0.37654
lowerback 4.67209 -2.10037 -4.35527
upperback 0.280554 -2.95034 3.69426
thorax -1.9138 -1.43003 6.47132
lowerneck -19.5804 -10.3275 -12.7556
upperneck 18.1836 -12.8177 9.82916
head 10.5437 -5.74182 3.53796
rclavicle 2.47487e-014 -1.98785e-014
rhumerus -30.3777 -5.78271 -72.1457
rradius 33.5081
rwrist 17.681
rhand -20.021 3.2975
rfingers 7.12502
rthumb 6.31957 -26.5882
lclavicle 2.47487e-014 -1.98785e-014
lhumerus -25.5683 0.607878 84.8116
lradius 30.1498
lwrist -7.85527
lhand -12.2 24.3965
lfingers 7.12502
lthumb 13.8643 53.9143
rfemur -19.2995 4.27324 12.064
rtibia 25.8082
rfoot -12.8397 -8.65102
rtoes 2.79998
lfemur -7.02378 -2.87987 -15.5186
ltibia 14.8578
lfoot -9.20795 18.3383
ltoes -22.185
9
root 1.24991 17.9768 0.625056 7.66039 -6.96135 0.540458
lowerback 4.51294 -2.09777 -4.42922
upperback 0.341758 -2.94805 3.5936
thorax -1.76309 -1.43489 6.39689
lowerneck -19.7578 -10.3248 -12.6932
upperneck 18.1774 -12.8183 9.86702
head 10.5723 -5.72734 3.53569
rclavicle 4.58199e-014 2.78299e-014
rhumerus -30.209 -5.93134 -72.2428
rradius 33.5136
rwrist 17.6984
rhand -19.9713 3.09486
rfingers 7.12502
rthumb 6.36753 -26.7894
lclavicle 4.58199e-014 2.78299e-014
lhumerus -25.4823 0.770049 84.6901
lradius 29.9639
lwrist -8.04662
lhand -12.5382 24.0347
lfingers 7.12502
lthumb 13.5383 53.5746
rfemur -19.4273 4.17493 11.8113
rtibia 25.7878
rfoot -12.7596 -8.49959
rtoes 2.8797
lfemur -7.12914 -2.66942 -15.7693
ltibia 14.8613
lfoot -9.25555 18.2037
ltoes -21.9487
10
root 1.26553 17.976 0.623443 7.6848 -7.05904 0.655251
lowerback 4.49959 -2.0909 -4.50905
upperback 0.336091 -2.94328 3.54829
thorax -1.76054 -1.43188 6.39397
lowerneck -19.6614 -10.319 -12.7798
upperneck 18.1287 -12.8148 9.95849
head 10.5503 -5.72556 3.58575
rclavicle -2.41523e-014 1.11319e-014
rhumerus -30.22 -5.87738 -72.2698
rradius 33.5246
rwrist 17.7639
rhand -20.0625 3.32502
rfingers 7.12502
rthumb 6.27952 -26.5619
lclavicle -2.41523e-014 1.11319e-014
lhumerus -25.5687 0.942135 84.6265
lradius 29.7872
lwrist -8.35178
lhand -12.5783 23.6217
lfingers 7.12502
lthumb 13.4997 53.1642
rfemur -19.4773 4.13362 11.6229
rtibia 25.7672
rfoot -12.6996 -8.38331
rtoes 2.75456
lfemur -7.14569 -2.62964 -15.9559
ltibia 14.8437
lfoot -9.29315 18.2072
ltoes -21.6384
11
root 1.28155 17.9756 0.619602 7.64528 -7.20855 0.76101
lowerback 4.63465 -2.07979 -4.62332
upperback 0.297143 -2.93849 3.55622
thorax -1.87115 -1.42389 6.47571
lowerneck -19.6169 -10.3083 -12.9535
upperneck 18.171 -12.7589 9.96678
head 10.5637 -5.7123 3.62747
rclavicle -1.72943e-014 6.36111e-015
rhumerus -30.2556 -5.74715 -72.1981
rradius 33.4071
rwrist 18.1339
rhand -20.3541 4.19974
rfingers 7.12502
rthumb 5.99799 -25.6954
lclavicle -1.72943e-014 6.36111e-015
lhumerus -25.666 1.10889 84.6185
lradius 29.5679
lwrist -8.57873
lhand -12.4115 23.583
lfingers 7.12502
lthumb 13.6604 53.1147
rfemur -19.4858 4.26422 11.4272
rtibia 25.7402
rfoot -12.6271 -8.39627
rtoes 2.74841
lfemur -7.09291 -2.58388 -16.1437
ltibia 14.8311
lfoot -9.34499 18.2628
ltoes -21.2816
12
root 1.29782 17.9766 0.615439 7.65303 -7.38517 0.758778
lowerback 4.7393 -2.05411 -4.62533
upperback 0.278183 -2.90734 3.57509
thorax -1.95293 -1.40494 6.50128
lowerneck -19.7121 -10.2729 -13.0414
upperneck 18.2509 -12.6895 10.0139
head 10.6112 -5.6775 3.66803
rclavicle -6.65929e-015 7.95139e-016
rhumerus -30.2696 -5.66871 -72.1587
rradius 33.3454
rwrist 18.3659
rhand -20.4428 4.86689
rfingers 7.12502
rthumb 5.9123 -25.0306
lclavicle -6.65929e-015 7.95139e-016
lhumerus -25.688 1.28485 84.5874
lradius 29.3411
lwrist -8.68977
lhand -12.5434 23.693
lfingers 7.12502
lthumb 13.5334 53.2332
rfemur -19.5446 4.43818 11.3487
rtibia 25.6944
rfoot -12.5893 -8.47055
rtoes 2.77875
lfemur -7.09589 -2.5022 -16.2204
ltibia 14.8377
lfoot -9.34286 18.3564
ltoes -21.3907
13
root 1.31369 17.9769 0.609356 7.70669 -7.46776 0.746091
lowerback 4.75828 -2.04718 -4.57649
upperback 0.308776 -2.89668 3.54575
thorax -1.93733 -1.40131 6.44167
lowerneck -19.8632 -10.2403 -12.8813
upperneck 18.2827 -12.6644 9.9712
head 10.6323 -5.65417 3.6277
rclavicle 3.67752e-015 -1.82882e-014
rhumerus -30.2883 -5.72636 -72.2023
rradius 33.5125
rwrist 18.3829
rhand -20.2647 4.99012
rfingers 7.12502
rthumb 6.08429 -24.9025
lclavicle 3.67752e-015 -1.82882e-014
lhumerus -25.5678 1.48343 84.4938
lradius 29.1084
lwrist -8.79339
lhand -12.6367 23.704
lfingers 7.12502
lthumb 13.4434 53.2502
rfemur -19.628 4.5771 11.2813
rtibia 25.6345
rfoot -12.6339 -8.52803
rtoes 2.94562
lfemur -7.19046 -2.46831 -16.2563
ltibia 14.8533
lfoot -9.3655 18.4023
ltoes -21.2731
